
<svg width="1000" height="500" viewBox="0 0 1000 500" xmlns="http://www.w3.org/2000/svg">
  <g fill="rgba(255,255,255,0.1)" stroke="rgba(255,255,255,0.15)" stroke-width="0.7">
    <!-- Africa -->
    <path d="M515 300 L520 280 L530 275 L525 260 L530 240 L545 230 L550 210 L545 200 L550 180 L545 170 L540 160 L535 155 L540 140 L550 130 L560 125 L565 115 L570 105 L565 95 L560 90 L550 85 L540 90 L535 100 L530 110 L520 115 L510 120 L500 125 L493 135 L490 150 L485 160 L480 170 L475 180 L470 190 L465 200 L460 210 L455 220 L450 230 L445 240 L440 250 L435 260 L430 270 L425 280 L420 290 L425 300 L435 305 L445 310 L455 315 L465 320 L475 325 L485 320 L495 315 L505 310 Z" />
    <!-- Europe -->
    <path d="M485 160 L490 150 L500 145 L510 140 L520 135 L530 130 L540 125 L550 120 L560 115 L570 110 L580 105 L590 100 L600 95 L610 90 L620 85 L630 80 L640 85 L630 95 L620 100 L610 105 L600 110 L590 115 L580 120 L570 125 L560 130 L550 135 L540 140 L530 145 L520 150 L510 155 L500 160 L490 165 Z" />
    <!-- Asia -->
    <path d="M640 85 L650 80 L660 75 L670 70 L680 65 L690 60 L700 55 L710 60 L720 65 L730 70 L740 75 L750 80 L760 85 L770 90 L780 95 L790 100 L800 105 L810 110 L820 115 L830 120 L840 125 L850 130 L860 135 L870 140 L880 145 L890 150 L900 155 L890 160 L880 165 L870 170 L860 175 L850 180 L840 185 L830 190 L820 195 L810 200 L800 205 L790 210 L780 215 L770 220 L760 225 L750 230 L740 235 L730 240 L720 245 L710 250 L700 245 L690 240 L680 235 L670 230 L660 225 L650 220 L640 215 L630 210 L620 205 L610 200 L600 195 L590 190 L580 185 L570 180 L565 175 L560 170 L555 165 L550 160 L545 155 L540 150 L535 145 L530 140 Z" />
    <!-- North America -->
    <path d="M130 70 L140 65 L150 60 L160 55 L170 50 L180 45 L190 40 L200 45 L210 50 L220 55 L230 60 L240 65 L250 70 L260 75 L270 80 L280 85 L290 90 L300 95 L310 100 L320 105 L330 110 L340 115 L350 120 L360 125 L370 130 L360 135 L350 140 L340 145 L330 150 L320 155 L310 160 L300 165 L290 170 L280 175 L270 180 L260 185 L250 190 L240 195 L230 200 L220 205 L210 210 L200 215 L190 220 L180 225 L170 220 L160 215 L150 210 L140 205 L130 200 L120 195 L110 190 L100 185 L90 180 L80 175 L70 170 L80 165 L90 160 L100 155 L110 150 L120 145 L130 140 L120 135 L110 130 L100 125 L110 120 L120 115 L130 110 L120 105 L110 100 L120 95 L130 90 L120 85 L110 80 L120 75 Z" />
    <!-- South America -->
    <path d="M230 255 L240 250 L250 245 L260 240 L270 235 L280 230 L290 235 L300 240 L310 245 L320 250 L310 255 L300 260 L290 265 L280 270 L270 275 L280 280 L290 285 L280 290 L270 295 L260 300 L250 305 L240 310 L230 315 L220 320 L210 325 L200 330 L190 335 L180 340 L170 345 L160 350 L150 355 L160 360 L170 365 L180 370 L170 375 L160 380 L170 385 L180 390 L170 395 L180 400 L190 405 L200 410 L210 415 L200 420 L190 425 L180 430 L170 435 L160 440 L150 445 L140 440 L150 435 L160 430 L150 425 L140 420 L150 415 L160 410 L150 405 L140 400 L150 395 L160 390 L150 385 L140 380 L150 375 L160 370 L150 365 L160 360 L170 355 L180 350 L190 345 L200 340 L210 335 L220 330 L210 325 L200 320 L210 315 L220 310 L210 305 L200 300 L210 295 L220 290 L210 285 L200 280 L210 275 L220 270 L210 265 L220 260 Z" />
    <!-- Australia -->
    <path d="M800 350 L810 345 L820 340 L830 335 L840 330 L850 325 L860 320 L870 325 L880 330 L890 335 L900 340 L910 345 L920 350 L930 355 L940 360 L930 365 L920 370 L910 375 L900 380 L890 385 L880 390 L870 395 L860 400 L850 405 L840 410 L830 415 L820 420 L810 425 L800 430 L790 425 L780 420 L790 415 L800 410 L790 405 L780 400 L790 395 L800 390 L790 385 L780 380 L770 375 L780 370 L790 365 L800 360 L810 355 Z" />
  </g>
</svg>
